<svg xmlns="http://www.w3.org/2000/svg" width="159" height="33" viewBox="0 0 159 33"><path fill="#ffffff" d="M430.887,83.173v-26.2h-6.164V51.357l6.164,0h6.126V83.173h-6.126Zm27.277-26.189v26.18h-6.276V56.984h-9.5L442.362,51.3h25.251l0,5.683h-9.452Zm27.006,26.8c-10.177,0-14.434-4.373-14.434-16.357s4.121-16.662,14.434-16.662c10.257,0,14.333,4.676,14.333,16.662C499.5,79.591,495.427,83.787,485.17,83.787ZM485.123,56.4c-5.736,0-7.892,1.836-7.892,11.026s2.156,10.721,7.939,10.721,7.88-1.578,7.88-10.721C493.05,58.2,490.994,56.4,485.123,56.4ZM521.74,69.69L530.029,83.2h-7.258l-6.627-12.314h-5.735V83.2h-6.184V51.341H516.1c7.886,0,11.694,3.15,11.694,9.989C527.79,66.211,525.64,68.757,521.74,69.69Zm-5.6-13.112h-5.735v9.69h5.553c3.81,0,6.09-.722,6.09-4.718C522.052,57.867,519.861,56.578,516.144,56.578ZM551.713,69.69L560,83.2h-7.256l-6.633-12.314h-5.733V83.2h-6.186V51.341h11.875c7.885,0,11.695,3.15,11.695,9.989C557.762,66.211,555.611,68.757,551.713,69.69Zm-5.6-13.112h-5.733v9.69h5.553c3.809,0,6.077-.722,6.077-4.718C552.008,57.867,549.831,56.578,546.111,56.578ZM401,83.132V77.669l12.534-13.388c1.227-1.449,1.745-2.085,1.745-3.625a3.806,3.806,0,0,0-4.052-4.156c-2.028,0-4.1,1.028-4.1,4.248H401c0-6.069,4.477-9.711,10.227-9.711,5.937,0,10.178,3.688,10.178,9.664,0,3.221-1.272,4.43-3.581,7.091l-8.789,9.876h12.37v5.463H401Z" transform="translate(-401 -50.781)"/></svg>
